<?xml version="1.0" encoding="utf-8"?>
<!-- Generator: Adobe Illustrator 25.2.1, SVG Export Plug-In . SVG Version: 6.00 Build 0)  -->
<svg version="1.1" id="Ebene_1" xmlns="http://www.w3.org/2000/svg" xmlns:xlink="http://www.w3.org/1999/xlink" x="0px" y="0px"
	 viewBox="0 0 45.2 45.5" style="enable-background:new 0 0 45.2 45.5;" xml:space="preserve">
<style type="text/css">
	.st0{fill:#3C8025;}
</style>
<g id="Logo" transform="translate(82.288 243.535)">
	<g id="Gruppe_1" transform="translate(-82.288 -243.535)">
		<path id="Pfad_1" class="st0" d="M45.2,19.9c0-0.1-0.3-0.2-0.5-0.4c-2.1-2-4.9-3-7.8-2.8c-0.6,0-1.1,0.1-1.6,0.2
			c1-0.3,1.5-0.5,1.8-0.6c0.4-0.1,2.8-1,4.1-5.2c0.2-0.4,0.3-0.9,0.3-1.3c-0.6,0-1.2,0.2-1.7,0.6c-1.3,0.5-2.6,0.8-3.9,1
			c-0.8,0-1.5,0.2-2.2,0.5c1.7-1.7,2.8-3.8,3.2-6.2c0.2-1.3,0.1-1.9,0-1.9c-0.1,0-0.2,0-0.2,0c-0.6,0.3-1.1,0.6-1.6,1
			c-1,0.7-2.1,1.4-2.1,1.4s0.4-3.7,0.3-3.8S31,2.4,27.8,5.9c0,0,0.4-3-0.2-4.2c0,0-0.2-0.8-0.3-1.3C27.2,0.3,27,0,27,0
			c-0.3,0.1-0.6,0.3-0.8,0.6c-0.7,0.8-4,1.8-4.5,6c-0.4-2.1-1.6-4-3.4-5.2C17.1,0.3,16.5,0,16.5,0s0,0.6-0.2,1.7
			c-0.1,0.6-0.2,1.2-0.4,1.8c0,0-2.3-2-2.3-2c-0.1-0.1-1.5,4.2-1.1,6.4c-0.6-0.5-1.3-0.9-2-1.2C9.2,6.1,7.9,5.8,6.5,5.9
			c0,0.2,2.1,4.2,3,5.6c0,0-5.6-1-5.5-0.6c0.2,0.4,0.3,0.8,0.4,1.3c0,0-2.2,0-2.2,0.1c0,0.2,1.7,2.9,1.8,3c0,0-1.7,0.3-2,0.3
			c-0.2,0,1.1,3.8,4.9,4.7c0.5,0.1,1.1,0.2,1.6,0.3c-1.4,0-2.8,0.3-4.2,0.8c-0.5,0.2-1,0.4-1.4,0.7c-0.5,0.4-2.9,0.8-3,1.1
			c0.9,0.8,1.9,1.5,2.9,2.2c-0.6,0.3-1.2,0.6-1.8,1C1,26.7,1,26.8,1,26.8c0.1,0.1,0.3,0.3,0.4,0.3c0.7,0.4,6.6,1,7,0.9
			S5.2,31.9,5.1,34c0,0,0.6,0,0.9,0.1c0.3,0-1.1,2.5-0.8,2.5c1.6-0.1,4.3-1.6,4.8-2s1.2-0.9,1.4-1.1s-1.2,2.3-0.6,4.4
			c0,0,0.2,1.7,0.2,2s0.5,0.3,0.5,0.6c0,0.3,1.3-1,1.9-1.5c0.7-0.6,1.3-1.3,1.9-2.1c0.4-0.6,0,5-0.1,6.1c-0.1,0.2,0,0.4,0.1,0.5
			c0,0,0.6-0.4,0.8-0.6c0.3-0.2,3.1-4,3.3-4.9c0,0,1.5,6.6,2,7.4c0.1,0.2,0.2,0.3,0.3,0.2c0.2-0.2,0.4-0.9,0.5-0.9
			c0.6-0.1,1-0.5,1.2-1.1c0.6-1.4,1.1-2.8,1.2-4.3c0,0,3.2,4.1,3.6,4.5c0.2,0.2,1-1.3,1.4-3.6s-0.4-5.5-1-5.6c0,0-0.2-0.3,0.4-0.1
			c0.3,0.1,1.7,2.4,4.8,4.2c0.5,0.2,1.1,0.3,1.6,0.3c0.2-0.7-2.2-7-2.2-7s0.1-0.1,0.5,0.1s5.1,3.2,7.9,1.8c0.2-0.1,0.4-0.2,0.6-0.3
			c0.3-1.4-2.1-4-3.7-5.2c0,0,4-0.2,4.6-1.2c0.4-0.2,0.8-0.4,1.1-0.8c-0.2-0.6-0.5-1.1-1-1.4c-0.7-0.4-1.3-0.9-1.8-1.4
			c0.3-0.3,0.6-0.6,1-0.7c0.6-0.2,2.6-1.4,2-2C44.6,20.6,45.2,20,45.2,19.9z M32.3,19.8c-0.6,0.1-2.2,0.1-0.7,1.4c0,0,0.3,0-0.5,0.4
			s1.6,0.7,1.9,1s-2.3,0-2.3,0.7s-0.4,0.3,1.3,2.1c0,0-1-0.2-1.1-0.1s2.2,2.1,2.2,2.7c0,0-0.5,0.3-0.7,0c-0.6-0.7-1.2-1.4-1.9-1.9
			c-0.3,0-0.5,0.1-0.7,0.4c0,0,0.6,1.5,0.4,1.5s-1.2-0.6-1.2-0.6s-0.6,0.3-0.4,0.9s2,2.6,1.9,2.7c0,0-0.1,0.3-0.4,0.3
			s-1.4-2.2-1.7-2.3s0.3,2,0.3,2s-1.1-1.1-1.4-1.4s-0.3,0.3-0.3,0.3l0.3,2.4c0,0-3.4-5.1-2.6,1c0,0-0.1,0.3-0.2,0.3
			c-0.4-0.8-0.7-1.7-0.8-2.5c0.1-0.5-0.6,1.5-0.6,1.5s-1.1-4.2-3.3,0.1c0,0-0.2-1.6-0.5-1.9s-0.6-0.4-0.7-0.4
			c-0.4,0.3-0.7,0.6-1.2,0.9c-0.3,0.1,0.2-1-0.2-1.3c0-0.3-0.1-0.5-0.2-0.7c-0.3-0.4-0.5-0.3-2,1.4c0.3-0.7,0.5-1.4,0.6-2.1
			c0-0.5-0.6-0.7-0.6-0.7s-1.1,0.8-1.4,0.7s0.5-1.1,0.5-1.4c0-0.1-0.1-0.1-0.1-0.1S14.1,27,13,27.7l-1.8,1.1
			c-0.1-0.1-0.3-0.1-0.3-0.5c0-0.1,3.4-1.7,3.2-1.9c-0.4-0.2-0.8-0.3-1.3-0.4c0,0,0.7-0.8,0.5-0.9c-0.6-0.1-1.2-0.2-1.7-0.2
			c0,0-0.3-0.4-0.2-0.3c0.5,0,1-0.1,1.5-0.2l-1-0.8c0,0,2.4-0.4,0.3-1.7c-0.8-0.5-1.6-0.8-2.5-1c2.3,0.1,3.8-0.5,3.6-1.3
			c0,0-0.1-0.3-2.4-1.1c0,0,0.1-0.3,0.2-0.3s2.5,0.8,2.4,0.7s-1-1.1-0.9-1.1s1.3,0.5,1.6,0.1c0.4-0.3,0.6-0.9,0.8-1.1
			s-0.6-0.9,0.5-0.6c0.3-0.2,0.5-0.6,0.3-0.9c0-0.1-0.1-0.1-0.1-0.2c-0.6-0.7-2.5-3,0.6-0.2c0.7,0.7,2.6-1.3,2.5-2.4
			c0.3,0.3,0.6,0.6,0.9,0.8c0.2,0.1,1.2,0.2,1.4-0.2c0.1-0.2-0.4-1.7-0.1-2.4c0.1,0,0.2,0.1,0.3,0.1c0.1,0.1,0.1,1.8,0.7,2.1
			c0,0,0.6-0.4,0.7-0.6s-0.2,1.7,1.7,0.9c0.4-0.3,0.8-0.6,1.2-0.8c0.3,0-0.2,1,0,1.3s1,0.6,1.3,0.1c0.4-0.5,0.9-1,1.5-1.3
			c-0.2,0.7-0.4,1.4-0.7,2.1c-0.1,0.2-0.2,0.4-0.2,0.7c0.1,0.3,0.4,0.6,0.7,0.7c0,0,1.2-0.7,2.5-1.6c-0.1,0.2-0.3,0.3-0.4,0.5
			c-0.6,0.6-1.2,1.2-1.6,1.9c0,0.2,0.6,0.8,1,0.5c0.5-0.3,1.1-0.6,1.7-0.7c0.1,0.1,0.3,0.3,0,0.4S30,17.7,30,17.7
			c1.1,0,2.2,0,3.3-0.3c-1.1,0.3-2.1,1.1-2.6,2.1c0.1,0.4,3.1-0.4,3.2-0.2C34.3,20.3,32.9,19.7,32.3,19.8L32.3,19.8z"/>
	</g>
</g>
</svg>
