<svg xmlns="http://www.w3.org/2000/svg" width="45.18" height="45.5" viewBox="0 0 45.18 45.5">
  <g id="Logo" transform="translate(82.288 243.535)">
    <g id="Gruppe_1" data-name="Gruppe 1" transform="translate(-82.288 -243.535)">
      <path id="Pfad_1" data-name="Pfad 1" d="M45.15,281.35c-.018-.118-.314-.223-.512-.387a10.564,10.564,0,0,0-7.821-2.778,12.134,12.134,0,0,0-1.645.16c1.009-.327,1.532-.523,1.836-.644.367-.146,2.786-.975,4.087-5.224a5.484,5.484,0,0,0,.346-1.3,3.015,3.015,0,0,0-1.732.564,17.25,17.25,0,0,1-3.924.992,4.437,4.437,0,0,0-2.222.547,10.986,10.986,0,0,0,3.213-6.212c.186-1.346.107-1.894.05-1.891a.854.854,0,0,0-.227.036,8.981,8.981,0,0,0-1.622,1.022c-1.009.674-2.077,1.42-2.077,1.42s.366-3.664.252-3.75-2.192-.063-5.386,3.494c0,0,.363-3.046-.236-4.2,0,0-.166-.832-.3-1.266-.065-.217-.236-.447-.264-.428a1.752,1.752,0,0,0-.77.59c-.7.807-3.979,1.795-4.521,6.031a7.592,7.592,0,0,0-3.43-5.154c-1.214-1.188-1.754-1.543-1.816-1.513s-.031.556-.215,1.746a8.308,8.308,0,0,1-.393,1.756s-2.252-1.981-2.311-2.039c-.106-.1-1.479,4.245-1.076,6.416a14.042,14.042,0,0,0-2.01-1.218,8.642,8.642,0,0,0-3.933-.771c.03.2,2.09,4.223,2.958,5.637,0,0-5.553-.954-5.456-.607a7.724,7.724,0,0,1,.384,1.259s-2.179-.048-2.151.133c.031.2,1.652,2.881,1.777,3.027,0,0-1.686.326-2.042.345-.241.014,1.126,3.789,4.875,4.732a15.584,15.584,0,0,0,1.637.321,11.334,11.334,0,0,0-4.15.812,6.737,6.737,0,0,0-1.382.731c-.478.38-2.858.78-2.975,1.127a26.138,26.138,0,0,0,2.906,2.205,17.157,17.157,0,0,0-1.785.969c-.079.107-.142.2-.122.232a1.562,1.562,0,0,0,.422.342c.668.414,6.612,1.036,6.978.889s-3.229,3.895-3.285,5.93c0,0,.589.043.921.07.255.02-1.084,2.546-.841,2.536,1.615-.068,4.294-1.631,4.8-1.991s1.189-.891,1.373-1.065-1.172,2.253-.616,4.387c0,0,.176,1.656.186,1.991s.48.334.475.557c0,.273,1.309-1.037,1.932-1.542a10.647,10.647,0,0,0,1.878-2.117c.409-.64.045,5.018-.122,6.105a.572.572,0,0,0,.082.506c.017.036.6-.443.782-.565.274-.182,3.109-3.995,3.288-4.949,0,0,1.512,6.642,2.025,7.354.111.154.2.326.281.206.151-.237.376-.858.546-.909a1.5,1.5,0,0,0,1.193-1.093,13.873,13.873,0,0,0,1.224-4.331s3.214,4.1,3.632,4.48c.166.152,1.039-1.3,1.423-3.635s-.443-5.471-.967-5.578c0,0-.219-.345.39-.127.346.125,1.685,2.446,4.769,4.209a3.854,3.854,0,0,0,1.629.282c.248-.693-2.173-7.027-2.173-7.027s.06-.072.548.127,5.11,3.19,7.914,1.788a2.373,2.373,0,0,0,.6-.344c.321-1.381-2.149-3.992-3.666-5.178,0,0,3.984-.162,4.594-1.218a2.688,2.688,0,0,0,1.114-.788,2.757,2.757,0,0,0-1-1.4,10.926,10.926,0,0,1-1.83-1.436,2.471,2.471,0,0,1,1.028-.7c.607-.19,2.572-1.4,2.047-2C44.541,282.043,45.173,281.494,45.15,281.35Zm-12.89-.078c-.615.1-2.2.137-.74,1.385,0,0,.269.02-.45.444s1.6.677,1.877.984-2.3-.029-2.251.746-.442.286,1.268,2.113c0,0-1.028-.239-1.147-.094s2.25,2.111,2.235,2.67c0,0-.482.335-.688.042a12.533,12.533,0,0,0-1.87-1.926.656.656,0,0,0-.665.354s.627,1.46.431,1.5-1.176-.649-1.176-.649-.643.283-.431.865,1.956,2.563,1.856,2.684c0,0-.149.326-.374.3S28.7,290.483,28.4,290.4s.347,2.043.347,2.043-1.09-1.148-1.38-1.387-.333.254-.333.254l.316,2.426s-3.4-5.062-2.565.974c0,0-.078.342-.19.331a6.867,6.867,0,0,1-.752-2.54c.084-.544-.6,1.505-.6,1.505s-1.065-4.229-3.27.105c0,0-.154-1.637-.493-1.918s-.619-.432-.7-.38a6.149,6.149,0,0,1-1.169.868c-.3.072.243-.982-.208-1.276a1.18,1.18,0,0,0-.222-.715c-.263-.422-.517-.264-2.036,1.373a9.638,9.638,0,0,0,.629-2.09c0-.536-.6-.659-.6-.659s-1.106.841-1.426.737.529-1.133.544-1.418c0-.09-.122-.055-.122-.055s-.133-.1-1.243.553l-1.8,1.146c-.133-.081-.309-.066-.255-.493.015-.123,3.364-1.7,3.214-1.863a5.585,5.585,0,0,0-1.268-.438s.7-.846.492-.939a15.74,15.74,0,0,0-1.738-.218s-.264-.42-.21-.337a8.433,8.433,0,0,0,1.5-.228L11.9,285s2.437-.428.286-1.723a7.409,7.409,0,0,0-2.525-.969c2.295.114,3.812-.467,3.555-1.307,0,0-.073-.3-2.361-1.14,0,0,.064-.273.216-.31s2.532.834,2.364.694-1.04-1.108-.883-1.1,1.274.479,1.644.132c.355-.332.578-.944.811-1.076s-.622-.924.506-.56a.694.694,0,0,0,.162-1.13c-.6-.7-2.51-2.96.6-.236.744.652,2.607-1.335,2.454-2.416a10.349,10.349,0,0,0,.9.83c.157.081,1.2.205,1.436-.156.109-.166-.382-1.7-.066-2.381a.331.331,0,0,1,.258.132c.125.145.14,1.75.705,2.055,0,0,.635-.372.742-.65s-.172,1.734,1.732.866a5.279,5.279,0,0,1,1.193-.848c.264-.025-.2.978.035,1.335s1.016.6,1.264.15a4.994,4.994,0,0,1,1.53-1.3,13.421,13.421,0,0,1-.685,2.079,4.1,4.1,0,0,0-.2.659.9.9,0,0,0,.74.662s1.226-.716,2.5-1.645c-.133.161-.268.328-.4.507a13.6,13.6,0,0,0-1.65,1.94c0,.245.566.8,1.028.484a4.8,4.8,0,0,1,1.676-.692c.1.08.274.309.042.443s-1.531.812-1.531.812a13.755,13.755,0,0,0,3.3-.265A4.5,4.5,0,0,0,30.65,281c.058.389,3.11-.4,3.194-.209C34.281,281.782,32.877,281.167,32.26,281.271Z" transform="translate(0.029 -261.457)" fill="#68bd4b"/>
    </g>
  </g>
</svg>
