<?xml version="1.0" encoding="utf-8"?>
<!-- Generator: Adobe Illustrator 25.3.1, SVG Export Plug-In . SVG Version: 6.00 Build 0)  -->
<svg version="1.1" id="Ebene_1" xmlns:serif="http://www.serif.com/"
	 xmlns="http://www.w3.org/2000/svg" xmlns:xlink="http://www.w3.org/1999/xlink" x="0px" y="0px" viewBox="0 0 205.5 200"
	 style="enable-background:new 0 0 205.5 200;" xml:space="preserve">
<style type="text/css">
	.st0{fill:none;}
	.st1{fill:url(#SVGID_1_);}
	.st2{fill:#3C8025;}
</style>
<g>
	<path class="st0" d="M205,102.1c0-0.2,0.1-0.4,0.1-0.6c0.3-1.9,0.6-3.4,0-3.7c0,0-0.1,0-0.1,0V102.1z"/>
	
		<linearGradient id="SVGID_1_" gradientUnits="userSpaceOnUse" x1="-248.6921" y1="536.1852" x2="-248.4151" y2="535.5262" gradientTransform="matrix(280 0 0 -280 69630.3125 150178.9219)">
		<stop  offset="0" style="stop-color:#68BD4B"/>
		<stop  offset="1" style="stop-color:#46962B"/>
	</linearGradient>
	<path class="st1" d="M97.1,198.9H15.2c0.6,0.4,1.1,0.8,1.6,1.1h89C104.2,199.6,100.2,199.2,97.1,198.9z"/>
	<path class="st2" d="M205.1,97.8V8.5c0,0-0.1,0-0.1,0.1v89.3C205,97.8,205.1,97.8,205.1,97.8z"/>
	<path class="st2" d="M173.3,53.2C170,39.6,163,21.3,145.9,12.1c-9.7-9.5-14-12.3-14.5-12.1c-0.4,0.2-0.2,4.4-1.7,13.9
		c-1.7,10.6-3.1,14-3.1,14s-18-15.8-18.4-16.3c-0.8-0.8-11.8,33.9-8.6,51.2c-5.1-3.7-10.4-6.9-16-9.7c-11.8-6-31.5-7.1-31.4-6.2
		c0.2,1.6,16.7,33.7,23.6,45c0,0-44.3-7.6-43.5-4.8c1.3,3.3,2.3,6.6,3.1,10c0,0-17.4-0.4-17.2,1.1c0.2,1.6,13.2,23,14.2,24.2
		c0,0-13.5,2.6-16.3,2.8c-1.9,0.1,9,30.2,38.9,37.8c4.3,1.1,8.7,1.9,13.1,2.6c-9.8-0.2-20.7,1.9-33.1,6.5c0,0-7.2,2.8-11,5.8
		c-3.8,3-22.8,6.2-23.7,9c0.3,1.2,8.6,7.4,15.2,12h81.8c-2.5-0.2-4.4-0.4-4.4-0.4s-2.1-3.4-1.7-2.7c0.4,0.7,11.9-1.8,11.9-1.8
		l-7.7-6c0,0,19.5-3.4,2.3-13.8c-6.2-3.8-13-6.4-20.1-7.7c18.3,0.9,30.4-3.7,28.4-10.4c0,0-0.6-2.4-18.8-9.1c0,0,0.5-2.2,1.7-2.5
		c1.2-0.3,20.2,6.7,18.9,5.5c-1.3-1.1-8.3-8.8-7-8.8s10.2,3.8,13.1,1.1c2.8-2.7,4.6-7.5,6.5-8.6c1.9-1.1-5-7.4,4-4.5
		c0,0,6.1-3.4,1.3-9c-4.8-5.6-20-23.6,4.8-1.9c5.9,5.2,20.8-10.7,19.6-19.3c0,0,5.9,6,7.2,6.6c1.3,0.6,9.6,1.6,11.5-1.2
		c0.9-1.3-3.1-13.6-0.5-19c0.8,0,1.6,0.4,2.1,1.1c1,1.2,1.1,14,5.6,16.4c0,0,5.1-3,5.9-5.2c0.9-2.2-1.4,13.8,13.8,6.9
		c0,0,7.4-6.6,9.5-6.8c0.1,0,0.1,0,0.2,0V8.5C195.6,14.9,176.9,25,173.3,53.2z"/>
</g>
</svg>
